<svg width="40" height="40" viewBox="0 0 40 40" fill="none" xmlns="http://www.w3.org/2000/svg">
<g clip-path="url(#clip0_1139_12218)">
<path d="M20 40C31.0457 40 40 31.0457 40 20C40 8.95431 31.0457 0 20 0C8.95431 0 0 8.95431 0 20C0 31.0457 8.95431 40 20 40Z" fill="#E84142"/>
<path d="M27.0549 20.5196C27.7479 19.3228 28.866 19.3228 29.5589 20.5196L33.8738 28.0944C34.5668 29.2913 33.9998 30.2677 32.614 30.2677H23.9211C22.551 30.2677 21.9841 29.2913 22.6612 28.0944L27.0549 20.5196ZM18.7085 5.93694C19.4014 4.74009 20.5038 4.74009 21.1967 5.93694L22.1573 7.66923L24.425 11.6535C24.9762 12.7873 24.9762 14.1259 24.425 15.2598L16.8187 28.4409C16.1258 29.5117 14.9762 30.1889 13.7006 30.2677H7.38565C5.99982 30.2677 5.4329 29.307 6.12581 28.0944L18.7085 5.93694Z" fill="white"/>
</g>
<defs>
<clipPath id="clip0_1139_12218">
<rect width="40" height="40" fill="white"/>
</clipPath>
</defs>
</svg>
