<svg version="1.2" xmlns="http://www.w3.org/2000/svg" viewBox="0 0 224 224" width="224" height="224">
	<title>EURC-svg</title>
	<defs>
		<clipPath clipPathUnits="userSpaceOnUse" id="cp1">
			<path d="m0 0h653.31v223.58h-653.31z"/>
		</clipPath>
	</defs>
	<style>
		.s0 { fill: #2775ca } 
		.s1 { fill: #ffffff } 
	</style>
	<g id="Clip-Path" clip-path="url(#cp1)">
		<g id="Layer">
			<path id="Layer" fill-rule="evenodd" class="s0" d="m111.8 0c61.7 0 111.8 50 111.8 111.8 0 61.7-50.1 111.8-111.8 111.8-61.8 0-111.8-50.1-111.8-111.8 0-61.8 50-111.8 111.8-111.8z"/>
			<path id="Layer" fill-rule="evenodd" class="s1" d="m137.3 33.1c-2.5-0.8-4.6 0.7-4.6 3.3v6.5c0 1.8 1.4 3.8 3.1 4.4 26.7 9.8 45.9 35.5 45.9 65.7 0 30.1-19.2 55.8-45.9 65.6-1.9 0.7-3.1 2.4-3.1 4.4v6.5c0 2.6 2.1 4.1 4.6 3.3 33.8-10.8 58.3-42.5 58.3-79.8 0-37.4-24.5-69.1-58.3-79.9z"/>
			<path id="Layer" fill-rule="evenodd" class="s1" d="m90.8 36.4c0-2.6-2-4.1-4.6-3.3-33.8 10.8-58.3 42.5-58.3 79.9 0 37.4 24.5 69 58.3 79.8 2.6 0.8 4.6-0.7 4.6-3.3v-6.5c0-1.8-1.3-3.8-3-4.4-26.7-9.8-45.9-35.5-45.9-65.6 0-30.2 19.2-55.9 45.9-65.7 1.7-0.6 3-2.6 3-4.4z"/>
			<path id="Layer" class="s1" d="m140.4 134.8l-6.4-2.9c-1.4-0.6-3.1 0-3.8 1.4-3 6.1-8 10-14.6 10-6 0-10.8-3-14.5-8.9q-2.2-3.4-3.5-7.7h17.2c1.1 0 2.1-0.6 2.6-1.5l4.1-5.6c0.9-1.9-0.5-4.2-2.6-4.2h-23.2q-0.1-1.7-0.1-3.6 0-1.9 0.1-3.7h19.1c1.1 0 2.1-0.6 2.6-1.5l4.1-5.6c0.9-1.9-0.5-4.2-2.6-4.2h-21.3c3.1-10.1 9.6-16.8 18-16.6 6.3 0 11.3 3.5 14.5 9.2 0.7 1.2 2.3 1.7 3.6 1.1l6.4-2.8c1.6-0.7 2.2-2.5 1.4-4q-8.9-16.1-25.9-16.1c-10.4 0-18.7 4.1-25 12.3-3.7 4.8-6.3 10.5-7.8 16.9h-9.3c-1.1 0-2.1 0.7-2.6 1.6l-4.1 5.6c-1 1.9 0.4 4.1 2.6 4.1h11.8c0 1.2-0.1 2.4-0.1 3.7q0 1.8 0.1 3.6h-7.7c-1.1 0-2.1 0.7-2.6 1.6l-4.1 5.6c-1 1.9 0.4 4.1 2.6 4.1h13.4c4.2 17.6 16.4 29.5 32.8 29.3 11.6 0 20.3-5.8 26.2-17.3 0.7-1.5 0.1-3.3-1.4-3.9z"/>
		</g>
	</g>
</svg>