<svg width="124" height="20" viewBox="0 0 124 20" fill="none" xmlns="http://www.w3.org/2000/svg">
    <path fill-rule="evenodd" clip-rule="evenodd" d="M31.6441 18.4693V10.7312C31.6441 10.0971 31.6451 9.46306 31.6461 8.8291C31.6489 7.06851 31.6517 5.30833 31.633 3.5473C31.6266 3.03131 31.547 2.49304 31.3798 2.00572C30.9816 0.841582 29.8398 0.0692033 28.7712 0.0405377C26.9301 -0.0094911 25.0883 -0.00208747 23.2462 0.0053171C22.4496 0.00851924 21.653 0.0117216 20.8563 0.0102792C20.5712 0.0102792 20.4614 0.124942 20.4677 0.417968C20.4803 0.941913 20.4781 1.46586 20.4759 1.9898V1.99001C20.475 2.19378 20.4741 2.39756 20.4741 2.60133C20.4741 3.21605 20.4805 3.2256 21.0888 3.2256H27.8507C28.4161 3.2256 28.4224 3.23038 28.4224 3.80529V11.3459V18.5298C28.424 19.0586 28.4543 19.0856 28.9878 19.0856H31.0167C31.625 19.0872 31.6441 19.0713 31.6441 18.4693ZM98.1899 0.0103237H103.044C103.534 0.0103237 103.554 0.0437671 103.507 0.537452C103.38 1.92296 101.963 3.20972 100.611 3.21609C98.6486 3.22565 96.685 3.23202 94.723 3.22246C93.664 3.21769 92.6225 3.34031 91.6542 3.75755C90.0808 4.43597 88.915 5.54915 88.2255 7.14646C87.6283 8.53197 87.5311 9.94454 88.0041 11.3619C88.5949 13.1376 89.689 14.4833 91.4583 15.262C92.3469 15.6522 93.2451 15.7891 94.1959 15.7828C96.1324 15.77 98.0689 15.7684 100.004 15.7828C101.598 15.7939 102.756 16.5137 103.394 17.9884C103.501 18.2337 103.514 18.5315 103.514 18.8054C103.514 19.0698 103.291 19.0889 103.077 19.0873C102.409 19.0854 101.74 19.0852 101.072 19.085C100.626 19.0849 100.181 19.0847 99.7347 19.0841C99.2409 19.0841 98.7471 19.0861 98.2533 19.088C97.0892 19.0927 95.9252 19.0974 94.7612 19.0761C93.863 19.0602 92.9521 19.0315 92.0714 18.8707C91.0618 18.686 90.1015 18.3117 89.2065 17.7734C87.9022 16.9915 86.8304 15.9818 86.0087 14.7094C85.4274 13.8096 85.0229 12.8414 84.741 11.7983C84.4321 10.658 84.4448 9.51297 84.5419 8.37271C84.6486 7.14169 85.0898 5.99825 85.6933 4.91055C86.3415 3.74481 87.2222 2.79407 88.2685 1.99462C89.0982 1.36079 90.0171 0.884624 91.0124 0.534267C92.4951 0.0135089 94.0191 -0.0167491 95.5591 0.00873142C96.1949 0.0191544 96.8315 0.0161022 97.4684 0.013049C97.7073 0.0119036 97.9462 0.0107581 98.1852 0.0103237H98.1899ZM63.386 4.2378C63.3855 4.68714 63.3849 5.13651 63.3849 5.58588L63.3833 5.58748C63.3833 5.92657 63.3831 6.26584 63.383 6.60522C63.3826 7.28435 63.3822 7.96395 63.3833 8.64355C63.3835 8.79969 63.3825 8.95596 63.3814 9.11221C63.3745 10.1066 63.3677 11.1007 63.6939 12.0627C63.7389 12.1959 63.782 12.3304 63.8253 12.4651L63.8253 12.4652L63.8254 12.4654L63.8254 12.4656C63.9719 12.9219 64.1192 13.3806 64.3404 13.7986C64.979 15.0041 65.8024 16.0663 66.8853 16.9406C68.0733 17.8978 69.3967 18.5571 70.8666 18.8628C72.3668 19.175 73.8797 19.1606 75.3862 18.7307C76.6236 18.3771 77.7384 17.8213 78.7608 17.0585C80.1559 16.0186 81.1066 14.6347 81.7819 13.0628C82.2931 11.87 82.4412 10.596 82.4412 9.30445C82.438 6.35508 82.4364 3.40411 82.4475 0.45315C82.4475 0.0932371 82.309 -0.000722605 81.9761 0.00564753C81.1942 0.0231654 80.4123 0.027943 79.6303 0.00564753C79.28 -0.0055002 79.1765 0.102792 79.1765 0.454742C79.182 1.77246 79.1815 3.08988 79.181 4.40726C79.1804 6.11969 79.1798 7.83205 79.1924 9.54492C79.2004 10.7345 78.8755 11.8238 78.2751 12.8144C77.3737 14.3018 76.028 15.2924 74.3384 15.6539C72.7108 16.0011 71.0864 15.8498 69.634 14.9133C67.7039 13.668 66.6369 11.9066 66.6146 9.59429C66.5894 6.91945 66.5999 4.2446 66.6103 1.56976L66.6146 0.464297C66.6162 0.128273 66.5381 -0.00709308 66.1734 0.00405465C65.3931 0.0279427 64.6096 0.0263501 63.8276 0.00405465C63.4725 -0.00550054 63.3754 0.125087 63.3785 0.46589C63.3891 1.72254 63.3876 2.98006 63.386 4.2378ZM10.7773 0.0107724C10.3569 0.0113755 9.93648 0.0119787 9.51604 0.0119787L9.51445 0.00560839C9.08063 0.00560839 8.64699 0.00596248 8.21347 0.00631648C7.34678 0.00702417 6.48056 0.00773148 5.61434 0.00560839C2.95958 0.000830794 0.822404 1.77173 0.196539 4.19079C-0.212742 5.77217 0.000657086 7.36152 0.992805 8.73428C2.15695 10.3475 3.75266 11.1804 5.76562 11.1772C6.7445 11.1766 7.72361 11.1774 8.70285 11.1781H8.70308H8.70331H8.70354H8.70377H8.70401H8.70424C10.3373 11.1794 11.9707 11.1806 13.6041 11.1756C14.6711 11.1725 15.625 12.0245 15.8368 13.0755C16.1075 14.4101 15.023 15.7589 13.6582 15.7685C12.062 15.7805 10.4658 15.7791 8.86961 15.7777C7.72028 15.7767 6.57096 15.7756 5.42164 15.7796C4.34986 15.7828 3.48034 14.8623 3.32427 13.9036C3.2765 13.6122 3.14909 13.5262 2.88314 13.5278C2.08687 13.5342 1.2922 13.5374 0.495936 13.5246C0.132838 13.5183 0.0102125 13.6918 0.0723212 14.0167C0.156725 14.4547 0.250685 14.891 0.358978 15.3242C0.661559 16.5313 1.49286 17.3754 2.43245 18.084C3.44371 18.8469 4.66041 19.0842 5.91692 19.0842H5.91851H5.91864H5.91878H5.91891H5.91905H5.91918H5.91932C8.34713 19.0873 10.7734 19.0905 13.1996 19.0842C14.4656 19.081 15.6505 18.8071 16.7175 18.0713C17.7033 17.3929 18.3928 16.4899 18.7846 15.3895C19.2942 13.9546 19.2544 12.5118 18.5712 11.1199C17.6411 9.22478 16.1266 8.07497 14.0181 7.98738C12.3054 7.91564 10.5894 7.92371 8.87308 7.93178C7.92266 7.93626 6.97214 7.94073 6.02203 7.93165C5.5793 7.92846 5.10154 7.88865 4.70341 7.71665C3.54564 7.21501 2.93888 5.96646 3.46123 4.73065C3.90555 3.67958 4.77348 3.2289 5.89144 3.2289C6.42221 3.22822 6.95297 3.22727 7.48373 3.22632H7.48378H7.48384H7.48389H7.48395H7.484H7.48406C9.4741 3.22275 11.4639 3.21917 13.4528 3.23049C14.6695 3.23845 15.6377 4.06975 15.8464 5.25619C15.8894 5.50463 15.9817 5.59381 16.2286 5.59062C17.0646 5.58107 17.8991 5.57788 18.7352 5.59062C19.0458 5.5954 19.1079 5.4664 19.0951 5.17975C19.0362 3.80221 18.4565 2.64284 17.5185 1.68414C16.4627 0.605993 15.1488 0.0231261 13.6152 0.0135709C12.6693 0.00805836 11.7233 0.00941538 10.7773 0.0107724ZM122.563 3.21947C123.042 3.21264 123.521 3.2058 124 3.20344H123.998V0.0263371L117.085 0.0120042L116.956 0.0122032C116.827 0.0125017 116.698 0.0128002 116.569 0.0104114C116.316 0.00563377 116.184 0.117111 116.252 0.375102C116.272 0.447187 116.29 0.519808 116.309 0.592552C116.381 0.874972 116.453 1.15926 116.571 1.4214C117.066 2.5298 117.963 3.16203 119.154 3.20822C120.289 3.25192 121.426 3.2357 122.563 3.21947ZM50.7715 11.4425H50.7716C51.7927 11.4489 52.8141 11.4553 53.8347 11.4288C55.5483 11.3842 56.8175 10.5004 57.4784 8.98908C58.375 6.93789 57.6552 4.92812 55.6884 3.79742C55.0753 3.44388 54.2822 3.2687 53.5656 3.25277C51.8889 3.21208 50.2115 3.21623 48.5338 3.22038C47.5856 3.22273 46.6372 3.22508 45.6889 3.21933C45.2812 3.21615 45.2366 3.41521 45.2366 3.73213C45.2405 5.42717 45.2402 7.12119 45.24 8.81582V8.81593V8.81605V8.81616V8.81628V8.81639L45.2398 10.0847C45.2398 10.6533 45.1682 10.7138 44.6187 10.5816C43.1218 10.2217 41.9879 8.9413 42.0134 7.33284C42.0463 5.27346 42.0328 3.21278 42.0194 1.15198V1.15187V1.15176V1.15164V1.15153V1.15142L42.0149 0.464248C42.0134 0.117076 42.1185 0.00559875 42.4672 0.00559875C43.9262 0.00927386 45.385 0.00823721 46.8438 0.00720059C49.1777 0.00554204 51.5115 0.00388358 53.8459 0.0215238C55.4798 0.0342641 56.9354 0.633057 58.2301 1.61883C59.3385 2.46288 60.1364 3.55058 60.6396 4.83894C61.1508 6.14322 61.2289 7.52395 60.9358 8.86327C60.5297 10.7202 59.5583 12.2697 57.9323 13.3494C57.6122 13.5612 57.6154 13.6823 57.8798 13.9657C59.3369 15.5312 60.7909 17.0998 62.2401 18.6733C62.2878 18.7253 62.309 18.8017 62.3302 18.8784C62.3401 18.9143 62.35 18.9503 62.3627 18.9838C62.3333 18.9948 62.304 19.0086 62.2748 19.0224C62.2107 19.0525 62.147 19.0826 62.0825 19.0826L61.797 19.0841C60.6991 19.0902 59.6001 19.0963 58.5024 19.0714C58.305 19.0666 58.0645 18.9313 57.9228 18.7816C57.2985 18.1219 56.6807 17.4559 56.0629 16.7899L56.0626 16.7896L56.0624 16.7893L56.0622 16.7892C55.4855 16.1675 54.9087 15.5457 54.3268 14.9292C54.1978 14.7923 53.9701 14.6728 53.787 14.6712C52.1483 14.6617 50.509 14.6607 48.8699 14.6598C47.777 14.6591 46.6843 14.6585 45.5918 14.6553C45.2573 14.6553 45.2366 14.8448 45.2382 15.0917C45.2414 16.2421 45.2398 17.3926 45.2382 18.5431V18.5459C45.2382 19.0619 45.2096 19.0873 44.7047 19.0873C44.4971 19.0873 44.2894 19.0865 44.0816 19.0856H44.0814H44.0812C43.5464 19.0833 43.0112 19.0811 42.4768 19.0937C42.1455 19.1017 42.0181 18.9647 42.0197 18.6526C42.0212 18.2001 42.0169 17.7475 42.0126 17.2949C42.0032 16.3043 41.9938 15.3138 42.0452 14.3257C42.1089 13.093 42.8335 12.2585 43.9355 11.7091C44.4515 11.4527 44.9787 11.4432 45.5185 11.44C46.4636 11.4342 47.4087 11.4351 48.3539 11.4361C48.7082 11.4364 49.0626 11.4368 49.417 11.4368H49.4186C49.8692 11.4368 50.32 11.4396 50.7708 11.4425H50.771H50.7711H50.7713H50.7715ZM116.053 10.741V18.4839C116.053 19.0684 116.031 19.0891 115.453 19.0891C115.245 19.0891 115.038 19.0876 114.83 19.0861H114.83C114.321 19.0825 113.812 19.0789 113.304 19.097C112.932 19.1098 112.809 18.9617 112.811 18.6129C112.817 17.6889 112.816 16.7648 112.815 15.8414C112.814 15.4948 112.814 15.1483 112.814 14.802V3.88355C112.814 3.44719 112.594 3.22902 112.153 3.22902H105.469C104.877 3.22902 104.869 3.21628 104.87 2.6366C104.871 2.50794 104.872 2.37925 104.872 2.25052V2.25015V2.24983C104.876 1.63781 104.88 1.02507 104.862 0.41342C104.854 0.109246 104.976 0.0136936 105.254 0.0136936C106.069 0.0151763 106.884 0.0125175 107.699 0.00985877C109.51 0.00395084 111.321 -0.00195632 113.131 0.0375818C114.196 0.0614698 115.405 0.862514 115.774 2.01392C115.937 2.51875 116.032 3.06658 116.039 3.5953C116.059 5.36516 116.056 7.13502 116.053 8.90488C116.053 9.51745 116.052 10.13 116.052 10.7426L116.053 10.741ZM36.6938 0.0136342C36.3748 0.0127604 36.0559 0.0118868 35.7372 0.0118868V0.00870162C35.4192 0.00870162 35.1013 0.00905697 34.7834 0.00941232C33.9356 0.0103599 33.0878 0.0113075 32.24 0.00551648C31.9278 0.00392395 31.7797 0.116994 31.8641 0.432315C31.878 0.483203 31.8917 0.534245 31.9054 0.585321C31.9794 0.861926 32.0538 1.13953 32.1667 1.39898C32.6604 2.52968 33.5602 3.15714 34.7705 3.20969C35.7362 3.25159 36.7039 3.2432 37.6715 3.23481C38.1751 3.23044 38.6786 3.22608 39.1818 3.2288C39.5003 3.2304 39.6309 3.12529 39.6229 2.78926C39.6022 2.02326 39.5959 1.25566 39.6229 0.489647C39.6357 0.124957 39.5242 -0.00085365 39.1547 0.00551648C38.3348 0.0181302 37.5141 0.0158817 36.6938 0.0136342Z" fill="#ffffff"></path>
</svg>