<?xml version="1.0" encoding="UTF-8"?>
<svg xmlns="http://www.w3.org/2000/svg" viewBox="0 0 1415 1415">
  <defs>
    <style>
      .cls-1 {
        fill: #fff;
      }

      .cls-2 {
        fill: #f2716a;
      }

      .cls-3 {
        fill: #fdfdfd;
      }

      .cls-4 {
        fill: #9fa6fc;
      }

      .cls-5 {
        fill: #c4524c;
      }

      .cls-6 {
        fill: #b88d73;
      }

      .cls-7 {
        fill: #a24741;
      }

      .cls-8 {
        fill: #bd967f;
      }

      .cls-9 {
        fill: #caa390;
      }

      .cls-10 {
        fill: #d6d6d6;
      }

      .cls-11 {
        fill: #dcdcdc;
      }

      .cls-12 {
        fill: #db5b54;
      }

      .cls-13 {
        fill: #421d2a;
      }

      .cls-14 {
        fill: #886b59;
      }

      .cls-15 {
        fill: #898989;
      }

      .cls-16 {
        fill: #888;
      }

      .cls-17 {
        fill: #29121a;
      }

      .cls-18 {
        fill: #493239;
      }

      .cls-19 {
        fill: #3c1a26;
      }
    </style>
  </defs>
  <g id="Layer_2" data-name="Layer 2">
    <circle class="cls-4" cx="707.5" cy="707.5" r="707.5"/>
  </g>
  <g id="Layer_1" data-name="Layer 1">
    <path class="cls-19" d="m1046.65,941.54l.26,91.74-140.78,81.27-.26-91.74,140.78-81.27Z"/>
    <path class="cls-17" d="m906.12,1114.55l-248.83-144.64-.29-91.74,248.86,144.64.26,91.74Z"/>
    <path class="cls-13" d="m905.87,1022.82l-248.86-144.64,140.78-81.27,248.86,144.64-140.78,81.27Z"/>
    <path class="cls-19" d="m885.29,1033.99l.26,91.74-140.75,81.27-.26-91.74,140.75-81.27Z"/>
    <path class="cls-17" d="m744.8,1207l-248.86-144.64-.26-91.74,248.86,144.64.26,91.74Z"/>
    <path class="cls-13" d="m744.54,1115.26l-248.86-144.64,140.78-81.27,248.83,144.64-140.75,81.27Z"/>
    <path class="cls-12" d="m1042.13,783.07l.39,130.83-341.59,197.21-.35-130.87,341.56-197.18Z"/>
    <path class="cls-7" d="m700.92,1111.12l-339.32-197.21-.39-130.83,339.35,197.18.35,130.87Z"/>
    <path class="cls-12" d="m700.57,980.26l-339.35-197.18,341.56-197.21,339.35,197.21-341.56,197.18Z"/>
    <path class="cls-8" d="m1040.36,521.27l.77,261.67-341.59,197.21-.74-261.67,341.56-197.21Z"/>
    <path class="cls-14" d="m699.54,980.15l-339.35-197.21-.74-261.64,339.35,197.18.74,261.67Z"/>
    <path class="cls-6" d="m698.8,718.49l-339.35-197.18,341.59-197.21,339.32,197.18-341.56,197.21Z"/>
    <path class="cls-1" d="m869.98,687.26l.16,52.32-45.55,26.32.13,52.32,45.58-26.29-91.1,52.58-.32-104.67,91.1-52.58Z"/>
    <path class="cls-18" d="m870.14,739.58l.16,52.35-45.58,26.29-.13-52.32,45.55-26.32Z"/>
    <path class="cls-1" d="m1003.96,609.9l.16,52.35-45.55,26.29.13,52.32,45.55-26.29-91.06,52.58-.29-104.67,91.06-52.58Z"/>
    <path class="cls-18" d="m1004.12,662.25l.13,52.32-45.55,26.29-.13-52.32,45.55-26.29Z"/>
    <path class="cls-14" d="m495,1044.54l-.19,78.51-113.89-65.74.22-78.51,113.85,65.74Z"/>
    <path class="cls-8" d="m495.01,1044.54l113.11-65.74-.19,78.51-113.12,65.74.19-78.51Z"/>
    <path class="cls-9" d="m381.15,978.81l113.12-65.74,113.85,65.74-113.12,65.74-113.85-65.74Z"/>
    <path class="cls-7" d="m529.32,1011.93l-.13,52.35-34.19-19.74-113.85-65.74-34.15-19.71.16-52.35,182.16,105.19Z"/>
    <path class="cls-5" d="m529.32,1011.93l113.12-65.74-.13,52.35-113.12,65.74.13-52.35Z"/>
    <path class="cls-12" d="m347.16,906.75l113.11-65.74,182.16,105.19-113.12,65.74-182.16-105.19Z"/>
    <path class="cls-12" d="m1040.56,404.21l.39,130.83-341.56,197.21-.39-130.83,341.56-197.21Z"/>
    <path class="cls-7" d="m699.38,732.26l-339.35-197.21-.39-130.83,339.35,197.21.39,130.83Z"/>
    <path class="cls-2" d="m698.99,601.43l-339.35-197.21,341.59-197.21,339.31,197.21-341.56,197.21Z"/>
    <path class="cls-12" d="m978.38,634.36c28.39-16.8,59.09-29.33,91.13-37.2v52.32c-32.03,7.87-62.73,20.41-91.1,37.23-32.76,19.21-63.29,41.99-91.03,67.92v-52.32c27.74-25.93,58.26-48.72,91-67.95Z"/>
    <path class="cls-7" d="m887.48,754.64l-113.08-65.71-.16-52.35,113.12,65.74.13,52.32Z"/>
    <path class="cls-2" d="m887.35,702.31l-113.11-65.74c27.75-25.93,58.28-48.71,91.03-67.92,32.75-19.22,90.39-38.52,90.39-38.52l113.95,67.41s-58.47,17.59-91.22,36.82c-32.75,19.23-63.28,42.02-91.03,67.95Z"/>
    <path class="cls-15" d="m994.59,887.84l-22.6-13.16-6-4.3,22.63,13.13,5.97,4.33Z"/>
    <path class="cls-15" d="m950.93,936.15l-22.63-13.16-11.84-10.5,22.63,13.13,11.84,10.53Z"/>
    <path class="cls-16" d="m721.88,993.64l-22.63-13.13-.03-8.41,22.63,13.16.03,8.38Z"/>
    <path class="cls-10" d="m1065.69,749.3l.06,23.08.03,14.32.03,8.38-71.23,92.77-5.97-4.33-37.68,52.64-11.84-10.53-44.94,69.53-45.19-17.49-11.75,24.17-37.88-9.02-5.97,11.2-71.48-10.37-.03-8.38-.1-37.36,343.94-198.59Z"/>
    <path class="cls-16" d="m721.85,985.26l-22.63-13.16-.1-37.36,22.63,13.16.1,37.36Z"/>
    <path class="cls-3" d="m721.75,947.9l-22.63-13.16,343.94-198.56,22.63,13.13-343.94,198.59Z"/>
    <path class="cls-3" d="m530.22,767.77l22.63-13.16,146.53,179.98-22.63,13.13-146.53-179.94Z"/>
    <path class="cls-3" d="m676.75,947.71l22.63-13.13,22.76,13.13-22.6,13.13-22.79-13.13Z"/>
    <path class="cls-10" d="m699.54,960.84l22.6-13.13-.13,45.9-22.6,13.16.13-45.93Z"/>
    <path class="cls-15" d="m530.54,660.33l-.32,107.43,146.53,179.95,22.79,13.13-.13,45.93-169.58-103.29-40.35-23.3-20.09-11.62.13-46.35,20.35-77.74.32-107.43,40.35,23.3Z"/>
    <path class="cls-3" d="m530.54,660.33l22.63-13.16-.32,107.43-22.63,13.16.32-107.43Z"/>
    <path class="cls-11" d="m490.19,637.03l22.63-13.13,40.35,23.27-22.63,13.16-40.35-23.3Z"/>
  </g>
</svg>