<svg width="40" height="40" viewBox="0 0 40 40" fill="none" xmlns="http://www.w3.org/2000/svg">
<g clip-path="url(#clip0_1139_12214)">
<path d="M20 40C31.0834 40 40 31.0834 40 20C40 8.9166 31.0834 0 20 0C8.9166 0 0 8.9166 0 20C0 31.0834 8.9166 40 20 40Z" fill="#2775CA"/>
<path d="M25.5006 23.1665C25.5006 20.2499 23.7506 19.2499 20.2506 18.8333C17.7506 18.4999 17.2506 17.8333 17.2506 16.6665C17.2506 15.4997 18.084 14.7499 19.7506 14.7499C21.2506 14.7499 22.084 15.2499 22.5006 16.4999C22.584 16.7499 22.834 16.9165 23.084 16.9165H24.4172C24.7506 16.9165 25.0006 16.6665 25.0006 16.3333V16.2499C24.6672 14.4165 23.1672 12.9999 21.2506 12.8333V10.8333C21.2506 10.4999 21.0006 10.2499 20.584 10.1665H19.334C19.0006 10.1665 18.7506 10.4165 18.6672 10.8333V12.7499C16.1672 13.0833 14.584 14.7499 14.584 16.8333C14.584 19.5833 16.2506 20.6665 19.7506 21.0833C22.084 21.4999 22.834 21.9999 22.834 23.3333C22.834 24.6667 21.6672 25.5833 20.084 25.5833C17.9172 25.5833 17.1672 24.6665 16.9172 23.4165C16.834 23.0833 16.584 22.9165 16.334 22.9165H14.9172C14.584 22.9165 14.334 23.1665 14.334 23.4999V23.5833C14.6672 25.6665 16.0006 27.1665 18.7506 27.5833V29.5833C18.7506 29.9165 19.0006 30.1665 19.4172 30.2499H20.6672C21.0006 30.2499 21.2506 29.9999 21.334 29.5833V27.5833C23.834 27.1665 25.5006 25.4165 25.5006 23.1665V23.1665Z" fill="white"/>
<path d="M15.7497 31.9167C9.24967 29.5835 5.91627 22.3335 8.33307 15.9167C9.58307 12.4167 12.3331 9.7501 15.7497 8.5001C16.0831 8.3335 16.2497 8.0835 16.2497 7.6667V6.5001C16.2497 6.1667 16.0831 5.9167 15.7497 5.8335C15.6663 5.8335 15.4997 5.8335 15.4163 5.9167C7.49967 8.4167 3.16627 16.8335 5.66627 24.7501C7.16627 29.4167 10.7497 33.0001 15.4163 34.5001C15.7497 34.6667 16.0831 34.5001 16.1663 34.1667C16.2497 34.0835 16.2497 34.0001 16.2497 33.8335V32.6667C16.2497 32.4167 15.9997 32.0835 15.7497 31.9167ZM24.5831 5.9167C24.2497 5.7501 23.9163 5.9167 23.8331 6.2501C23.7497 6.3335 23.7497 6.4167 23.7497 6.5835V7.7501C23.7497 8.0835 23.9997 8.4167 24.2497 8.5835C30.7497 10.9167 34.0831 18.1667 31.6663 24.5835C30.4163 28.0835 27.6663 30.7501 24.2497 32.0001C23.9163 32.1667 23.7497 32.4167 23.7497 32.8335V34.0001C23.7497 34.3335 23.9163 34.5835 24.2497 34.6667C24.3331 34.6667 24.4997 34.6667 24.5831 34.5835C32.4997 32.0835 36.8331 23.6667 34.3331 15.7501C32.8331 11.0001 29.1663 7.4167 24.5831 5.9167V5.9167Z" fill="white"/>
</g>
<defs>
<clipPath id="clip0_1139_12214">
<rect width="40" height="40" fill="white"/>
</clipPath>
</defs>
</svg>
