<svg width="113" height="27" viewBox="0 0 113 27" fill="none" xmlns="http://www.w3.org/2000/svg"><path d="M17.36 0V3.08807H21.7778L0 23.912V27H25.117C25.6671 27 26.1946 26.7831 26.5836 26.397C26.9726 26.0109 27.1911 25.4872 27.1911 24.9413V13.4743H24.08V23.912H4.50075L24.0903 5.16737V9.77888H27.2014V2.16C27.2014 0.967067 26.2278 0 25.0267 0H17.36Z" fill="#B0B5BA"></path><path d="M3.12088 3.08807H13.6364V0H2.08383C1.53376 0 1.00621 0.216897 0.617247 0.602981C0.228282 0.989064 0.00976562 1.51271 0.00976562 2.05871V14.411H3.12088V3.08807Z" fill="#B0B5BA"></path><path d="M40.8959 7.22479V5.99805H53.1045V9.19677L45.1801 17.6858H53.3314V20.9274H40.4512V17.9679L48.4246 9.14156H42.8125C42.5591 9.14832 42.3068 9.10335 42.0711 9.00942C41.8355 8.91548 41.6215 8.77454 41.4422 8.59519C41.2629 8.41583 41.122 8.20183 41.028 7.96622C40.9341 7.73062 40.8891 7.47834 40.8959 7.22479Z" fill="#B0B5BA"></path><path d="M67.9819 13.5149C67.9819 18.6642 65.6911 21.2679 61.1647 21.2679C56.6382 21.2679 54.375 18.6642 54.375 13.5149C54.375 8.30133 56.6382 5.73438 61.1647 5.73438C65.6911 5.73438 67.9819 8.31052 67.9819 13.5149ZM58.193 13.5149C58.2237 16.4284 59.2111 17.9006 61.1371 17.9006C63.0629 17.9006 64.0229 16.3671 64.0504 13.4015C64.0504 10.488 63.0875 9.04657 61.1647 9.04657C59.1836 9.04657 58.193 10.5432 58.193 13.5149Z" fill="#B0B5BA"></path><path d="M73.1332 2.93074V11.5179L77.9296 6.01599H82.6401L77.2856 11.751L82.6984 20.9515H78.0001L75.2401 15.8606C74.7402 14.9834 74.4672 14.5449 73.8324 14.5449C73.6451 14.5521 73.4676 14.6313 73.3373 14.7662C73.2071 14.9011 73.1339 15.0811 73.1332 15.2686V20.9148H69.2539V1.0293H71.2718C71.768 1.04282 72.2397 1.24872 72.587 1.60352C72.9345 1.95831 73.1303 2.43422 73.1332 2.93074Z" fill="#B0B5BA"></path><path d="M86.0954 23.5798C88.1532 23.5798 88.8861 22.5646 88.2942 20.5896L83.2188 6.00977H87.4754L90.4348 16.3604L93.0292 7.3377C93.2561 6.46366 93.848 6.00977 94.8079 6.00977H97.4299L91.5326 23.4662C90.631 25.9197 89.7294 26.7631 86.6259 26.7631C85.669 26.7631 85.16 26.7355 85.0465 26.6527V23.5858L86.0954 23.5798Z" fill="#B0B5BA"></path><path d="M112.001 13.5149C112.001 18.6642 109.707 21.2679 105.181 21.2679C100.655 21.2679 98.3945 18.6642 98.3945 13.5149C98.3945 8.30133 100.658 5.73438 105.181 5.73438C109.705 5.73438 112.001 8.31052 112.001 13.5149ZM102.213 13.5149C102.24 16.4284 103.231 17.9006 105.153 17.9006C107.076 17.9006 108.039 16.3671 108.067 13.4015C108.067 10.488 107.107 9.04657 105.181 9.04657C103.203 9.04657 102.213 10.5432 102.213 13.5149Z" fill="#B0B5BA"></path></svg>